<?xml version="1.0" encoding="UTF-8"?>
<svg xmlns="http://www.w3.org/2000/svg" xmlns:xlink="http://www.w3.org/1999/xlink" width="50pt" height="67pt" viewBox="0 0 50 67" version="1.1">
<defs>
<filter id="alpha" filterUnits="objectBoundingBox" x="0%" y="0%" width="100%" height="100%">
  <feColorMatrix type="matrix" in="SourceGraphic" values="0 0 0 0 1 0 0 0 0 1 0 0 0 0 1 0 0 0 1 0"/>
</filter>
<mask id="mask0">
  <g filter="url(#alpha)">
<rect x="0" y="0" width="50" height="67" style="fill:rgb(0%,0%,0%);fill-opacity:0.2;stroke:none;"/>
  </g>
</mask>
<clipPath id="clip1">
  <rect x="0" y="0" width="50" height="67"/>
</clipPath>
<g id="surface5" clip-path="url(#clip1)">
<path style=" stroke:none;fill-rule:nonzero;fill:rgb(13.72549%,12.156863%,12.54902%);fill-opacity:1;" d="M 35.386719 53.902344 L 39.445312 48.464844 C 40.117188 47.5625 39.921875 45.835938 39.003906 44.609375 L 36.242188 40.910156 L 35.691406 40.167969 L 20.957031 20.425781 L 14.371094 17.402344 L 11.078125 15.894531 L 12.207031 20.304688 L 14.460938 29.128906 L 29.195312 48.871094 L 29.75 49.613281 L 32.511719 53.3125 C 33.425781 54.539062 34.710938 54.804688 35.386719 53.902344 Z M 35.386719 53.902344 "/>
</g>
<mask id="mask1">
  <g filter="url(#alpha)">
<rect x="0" y="0" width="50" height="67" style="fill:rgb(0%,0%,0%);fill-opacity:0.2;stroke:none;"/>
  </g>
</mask>
<clipPath id="clip2">
  <rect x="0" y="0" width="50" height="67"/>
</clipPath>
<g id="surface8" clip-path="url(#clip2)">
<path style=" stroke:none;fill-rule:nonzero;fill:rgb(13.72549%,12.156863%,12.54902%);fill-opacity:1;" d="M 38.957031 16.890625 C 37.445312 14.867188 28.769531 23.214844 23.429688 30.367188 C 20.804688 33.886719 19.480469 36.460938 18.984375 38.410156 C 17.339844 38.195312 15.546875 39.007812 14.367188 40.589844 C 13.609375 41.605469 13.195312 42.726562 12.886719 43.941406 C 12.292969 46.277344 11.71875 49.203125 9.375 51.285156 C 11.121094 53.628906 17.957031 54.285156 21.269531 49.84375 C 21.621094 49.375 21.921875 48.832031 22.164062 48.242188 C 22.742188 46.851562 23 45.210938 22.886719 43.65625 C 24.34375 43 26.265625 41.226562 28.898438 37.695312 C 34.238281 30.542969 40.46875 18.914062 38.957031 16.890625 Z M 38.957031 16.890625 "/>
</g>
</defs>
<g id="surface1">
<path style=" stroke:none;fill-rule:nonzero;fill:rgb(46.27451%,76.078431%,68.627451%);fill-opacity:1;" d="M 50 33.5 C 50 52 38.808594 67 25 67 C 11.191406 67 0 52 0 33.5 C 0 15 11.191406 0 25 0 C 38.808594 0 50 15 50 33.5 Z M 50 33.5 "/>
<use xlink:href="#surface5" mask="url(#mask0)"/>
<path style=" stroke:none;fill-rule:nonzero;fill:rgb(78.039216%,36.078431%,36.078431%);fill-opacity:1;" d="M 29.195312 46.398438 C 28.28125 45.171875 28.082031 43.445312 28.757812 42.546875 L 32.816406 37.105469 C 33.488281 36.203125 34.777344 36.46875 35.691406 37.695312 L 39.003906 42.136719 C 39.921875 43.363281 40.117188 45.085938 39.445312 45.988281 L 35.386719 51.429688 C 34.710938 52.328125 33.425781 52.066406 32.511719 50.839844 Z M 29.195312 46.398438 "/>
<path style=" stroke:none;fill-rule:nonzero;fill:rgb(87.843137%,60%,36.862745%);fill-opacity:1;" d="M 19.332031 20.125 L 20.957031 17.949219 L 36.242188 38.433594 L 34.617188 40.609375 Z M 19.332031 20.125 "/>
<path style=" stroke:none;fill-rule:nonzero;fill:rgb(87.843137%,60%,36.862745%);fill-opacity:1;" d="M 14.980469 22.996094 L 18.226562 18.644531 L 34.617188 40.609375 L 31.371094 44.960938 Z M 14.980469 22.996094 "/>
<path style=" stroke:none;fill-rule:nonzero;fill:rgb(87.843137%,60%,36.862745%);fill-opacity:1;" d="M 14.460938 26.65625 L 16.085938 24.480469 L 31.371094 44.964844 L 29.746094 47.136719 Z M 14.460938 26.65625 "/>
<path style=" stroke:none;fill-rule:nonzero;fill:rgb(30.980392%,36.470588%,45.098039%);fill-opacity:1;" d="M 11.078125 13.417969 L 12.207031 17.832031 L 14.371094 14.929688 Z M 11.078125 13.417969 "/>
<path style=" stroke:none;fill-rule:nonzero;fill:rgb(96.078431%,81.176471%,52.941176%);fill-opacity:1;" d="M 20.957031 17.949219 L 14.371094 14.929688 L 12.207031 17.832031 L 14.460938 26.652344 L 15.273438 25.566406 L 17.191406 25.957031 L 16.605469 20.820312 L 20.4375 21.605469 L 20.144531 19.039062 Z M 20.957031 17.949219 "/>
<use xlink:href="#surface8" mask="url(#mask1)"/>
<path style=" stroke:none;fill-rule:nonzero;fill:rgb(96.078431%,81.176471%,52.941176%);fill-opacity:1;" d="M 23.429688 28.273438 C 18.089844 35.429688 18.113281 38.683594 19.621094 40.707031 C 21.132812 42.730469 23.558594 42.757812 28.898438 35.601562 C 34.238281 28.449219 40.46875 16.820312 38.957031 14.796875 C 37.445312 12.773438 28.769531 21.121094 23.429688 28.273438 Z M 23.429688 28.273438 "/>
<path style=" stroke:none;fill-rule:nonzero;fill:rgb(78.039216%,36.078431%,36.078431%);fill-opacity:1;" d="M 9.375 49.191406 C 11.121094 51.535156 17.957031 52.191406 21.269531 47.75 C 21.621094 47.28125 21.921875 46.738281 22.164062 46.148438 C 16.980469 45.941406 14.238281 43.628906 12.886719 41.847656 C 12.292969 44.183594 11.71875 47.109375 9.375 49.191406 Z M 9.375 49.191406 "/>
<path style=" stroke:none;fill-rule:nonzero;fill:rgb(30.980392%,36.470588%,45.098039%);fill-opacity:1;" d="M 21.683594 37.941406 C 19.777344 35.386719 16.273438 35.941406 14.367188 38.496094 C 13.609375 39.511719 13.195312 40.632812 12.886719 41.847656 C 14.238281 43.628906 16.894531 49.117188 22.164062 46.148438 C 23.25 43.539062 23.242188 40.027344 21.683594 37.941406 Z M 21.683594 37.941406 "/>
<path style=" stroke:none;fill-rule:nonzero;fill:rgb(78.039216%,36.078431%,36.078431%);fill-opacity:1;" d="M 12.886719 41.847656 C 12.886719 41.847656 16.027344 41.050781 17.527344 44.003906 C 19.023438 46.960938 22.164062 46.148438 22.164062 46.148438 L 18.097656 49.160156 L 14.03125 45.1875 Z M 12.886719 41.847656 "/>
</g>
</svg>
