<?xml version="1.0" encoding="UTF-8"?>
<svg xmlns="http://www.w3.org/2000/svg" xmlns:xlink="http://www.w3.org/1999/xlink" width="50pt" height="67pt" viewBox="0 0 50 67" version="1.1">
<g id="surface1">
<path style=" stroke:none;fill-rule:nonzero;fill:rgb(0%,0%,0%);fill-opacity:1;" d="M 38.542969 60.019531 L 11.457031 60.019531 C 10.832031 60.019531 10.417969 59.460938 10.417969 58.625 L 10.417969 30.707031 C 10.417969 29.871094 10.832031 29.3125 11.457031 29.3125 L 38.542969 29.3125 C 39.167969 29.3125 39.582031 29.871094 39.582031 30.707031 L 39.582031 58.625 C 39.582031 59.460938 39.167969 60.019531 38.542969 60.019531 Z M 12.5 57.230469 L 37.5 57.230469 L 37.5 32.105469 L 12.5 32.105469 Z M 12.5 57.230469 "/>
<path style=" stroke:none;fill-rule:nonzero;fill:rgb(0%,0%,0%);fill-opacity:1;" d="M 41.667969 32.105469 L 8.332031 32.105469 C 7.707031 32.105469 7.292969 31.546875 7.292969 30.707031 L 7.292969 19.542969 C 7.292969 18.703125 7.707031 18.144531 8.332031 18.144531 L 41.667969 18.144531 C 42.292969 18.144531 42.707031 18.703125 42.707031 19.542969 L 42.707031 30.707031 C 42.707031 31.546875 42.292969 32.105469 41.667969 32.105469 Z M 9.375 29.3125 L 40.625 29.3125 L 40.625 20.9375 L 9.375 20.9375 Z M 9.375 29.3125 "/>
<path style=" stroke:none;fill-rule:nonzero;fill:rgb(0%,0%,0%);fill-opacity:1;" d="M 25 20.9375 L 18.75 20.9375 C 15.832031 20.9375 13.542969 17.867188 13.542969 13.957031 C 13.542969 10.050781 15.832031 6.980469 18.75 6.980469 L 20.832031 6.980469 C 23.75 6.980469 26.042969 10.050781 26.042969 13.957031 L 26.042969 19.542969 C 26.042969 20.378906 25.625 20.9375 25 20.9375 Z M 18.75 9.769531 C 16.980469 9.769531 15.625 11.585938 15.625 13.957031 C 15.625 16.332031 16.980469 18.144531 18.75 18.144531 L 23.957031 18.144531 L 23.957031 13.957031 C 23.957031 11.585938 22.605469 9.769531 20.832031 9.769531 Z M 18.75 9.769531 "/>
<path style=" stroke:none;fill-rule:nonzero;fill:rgb(0%,0%,0%);fill-opacity:1;" d="M 31.25 20.9375 L 25 20.9375 C 24.375 20.9375 23.957031 20.378906 23.957031 19.542969 L 23.957031 13.957031 C 23.957031 10.050781 26.25 6.980469 29.167969 6.980469 L 31.25 6.980469 C 34.167969 6.980469 36.457031 10.050781 36.457031 13.957031 C 36.457031 17.867188 34.167969 20.9375 31.25 20.9375 Z M 26.042969 18.144531 L 31.25 18.144531 C 33.019531 18.144531 34.375 16.332031 34.375 13.957031 C 34.375 11.585938 33.019531 9.769531 31.25 9.769531 L 29.167969 9.769531 C 27.394531 9.769531 26.042969 11.585938 26.042969 13.957031 Z M 26.042969 18.144531 "/>
<path style=" stroke:none;fill-rule:nonzero;fill:rgb(0%,0%,0%);fill-opacity:1;" d="M 29.167969 60.019531 L 20.832031 60.019531 C 20.207031 60.019531 19.792969 59.460938 19.792969 58.625 L 19.792969 19.542969 C 19.792969 18.703125 20.207031 18.144531 20.832031 18.144531 L 29.167969 18.144531 C 29.792969 18.144531 30.207031 18.703125 30.207031 19.542969 L 30.207031 58.625 C 30.207031 59.460938 29.792969 60.019531 29.167969 60.019531 Z M 21.875 57.230469 L 28.125 57.230469 L 28.125 20.9375 L 21.875 20.9375 Z M 21.875 57.230469 "/>
</g>
</svg>
