<?xml version="1.0" encoding="UTF-8"?>
<svg xmlns="http://www.w3.org/2000/svg" xmlns:xlink="http://www.w3.org/1999/xlink" width="50pt" height="67pt" viewBox="0 0 50 67" version="1.1">
<g id="surface1">
<path style=" stroke:none;fill-rule:evenodd;fill:rgb(0.392157%,0.392157%,0.392157%);fill-opacity:1;" d="M 13.1875 20.109375 L 13.1875 28.628906 L 10.464844 28.628906 C 8.457031 28.628906 6.828125 30.808594 6.828125 33.5 L 6.828125 57.847656 C 6.828125 60.539062 8.457031 62.71875 10.464844 62.71875 L 39.535156 62.71875 C 41.542969 62.71875 43.171875 60.539062 43.171875 57.847656 L 43.171875 33.5 C 43.171875 30.808594 41.542969 28.628906 39.535156 28.628906 L 36.8125 28.628906 L 36.8125 20.109375 C 36.8125 11.367188 31.523438 4.28125 25 4.28125 C 18.476562 4.28125 13.1875 11.367188 13.1875 20.109375 Z M 17.730469 28.628906 L 17.730469 20.109375 C 17.730469 14.726562 20.984375 10.367188 25 10.367188 C 29.015625 10.367188 32.269531 14.726562 32.269531 20.109375 L 32.269531 28.628906 Z M 21.367188 42.023438 C 21.367188 39.332031 22.992188 37.152344 25 37.152344 C 27.007812 37.152344 28.632812 39.332031 28.632812 42.023438 C 28.632812 43.738281 27.96875 45.25 26.972656 46.113281 C 26.972656 46.113281 27.328125 48.988281 27.726562 52.371094 C 27.726562 53.382812 27.117188 54.195312 26.363281 54.195312 L 23.636719 54.195312 C 22.882812 54.195312 22.273438 53.382812 22.273438 52.371094 L 23.027344 46.113281 C 22.03125 45.25 21.367188 43.738281 21.367188 42.023438 Z M 21.367188 42.023438 "/>
</g>
</svg>
